<?xml version="1.0" encoding="UTF-8" standalone="no"?>
<!-- Created with Inkscape (http://www.inkscape.org/) -->

<svg
   xmlns:dc="http://purl.org/dc/elements/1.1/"
   xmlns:cc="http://creativecommons.org/ns#"
   xmlns:rdf="http://www.w3.org/1999/02/22-rdf-syntax-ns#"
   xmlns:svg="http://www.w3.org/2000/svg"
   xmlns="http://www.w3.org/2000/svg"
   xmlns:sodipodi="http://sodipodi.sourceforge.net/DTD/sodipodi-0.dtd"
   xmlns:inkscape="http://www.inkscape.org/namespaces/inkscape"
   width="744.09448819"
   height="1052.3622047"
   id="svg2"
   version="1.1"
   inkscape:version="0.48.4 r9939"
   sodipodi:docname="New document 1">
  <defs
     id="defs4" />
  <sodipodi:namedview
     id="base"
     pagecolor="#ffffff"
     bordercolor="#666666"
     borderopacity="1.0"
     inkscape:pageopacity="0.0"
     inkscape:pageshadow="2"
     inkscape:zoom="0.49497475"
     inkscape:cx="187.38967"
     inkscape:cy="696.23319"
     inkscape:document-units="px"
     inkscape:current-layer="layer1"
     showgrid="false"
     inkscape:window-width="1680"
     inkscape:window-height="991"
     inkscape:window-x="0"
     inkscape:window-y="27"
     inkscape:window-maximized="1" />
  <metadata
     id="metadata7">
    <rdf:RDF>
      <cc:Work
         rdf:about="">
        <dc:format>image/svg+xml</dc:format>
        <dc:type
           rdf:resource="http://purl.org/dc/dcmitype/StillImage" />
        <dc:title></dc:title>
      </cc:Work>
    </rdf:RDF>
  </metadata>
  <g
     inkscape:label="Layer 1"
     inkscape:groupmode="layer"
     id="layer1">
    <path
       style="fill:#000000"
       d="m 231.64598,382.82911 -73.40351,0 0,-14.94443 0,-14.94443 -14.50488,0 -14.50488,0 0,-43.9542 0,-43.95419 -14.50489,0 -14.50488,0 0,29.44931 0,29.44931 -14.944433,0 -14.944427,0 0,14.50489 0,14.50488 -14.504886,0 -14.504885,0 0,-14.50488 0,-14.50489 14.504885,0 14.504886,0 0,-29.44931 0,-29.44931 -14.504886,0 -14.504885,0 0,-14.50489 0,-14.50489 58.45908,0 58.459081,0 0,-14.50488 0,-14.50489 -43.95419,0 -43.9542,0 0,-44.39374 0,-44.39374 43.9542,0 43.95419,0 0,-14.50489 0,-14.504881 -58.459081,0 -58.45908,0 0,-14.50489 0,-14.504882 161.311901,0 161.31191,0 0,14.504882 0,14.50489 -58.89862,0 -58.89863,0 0,14.504881 0,14.50489 43.9542,0 43.9542,0 0,44.39374 0,44.39374 -43.9542,0 -43.9542,0 0,14.50489 0,14.50488 58.89863,0 58.89862,0 0,14.50489 0,14.50489 -73.40351,0 -73.40351,0 0,14.94442 0,14.94443 14.50488,0 14.50489,0 0,14.50489 0,14.50488 -14.50489,0 -14.50488,0 0,-14.50488 0,-14.50489 -14.50489,0 -14.50488,0 0,-14.94443 0,-14.94442 -14.94443,0 -14.94443,0 0,43.95419 0,43.9542 58.89863,0 58.89863,0 0,-14.50488 0,-14.50489 14.50488,0 14.50489,0 0,-14.50488 0,-14.50489 14.50488,0 14.50489,0 0,14.50489 0,14.50488 14.94443,0 14.94442,0 0,14.50489 0,14.50488 -14.94442,0 -14.94443,0 0,-14.50488 0,-14.50489 -14.50489,0 -14.50488,0 0,29.44932 0,29.44931 -73.40352,0 z m -29.00977,-146.80703 14.50489,0 0,-14.50488 0,-14.50489 -14.50489,0 -14.50488,0 0,14.50489 0,14.50488 14.50488,0 z m -73.4035,-58.89862 29.00976,0 0,-14.50489 0,-14.50488 -29.00976,0 -29.00977,0 0,14.50488 0,14.50489 29.00977,0 z m 73.4035,0 14.50489,0 0,-14.50489 0,-14.50488 -14.50489,0 -14.50488,0 0,14.50488 0,14.50489 14.50488,0 z m 72.96397,0 29.44932,0 0,-14.50489 0,-14.50488 -29.44932,0 -29.44931,0 0,14.50488 0,14.50489 29.44931,0 z m -72.96397,-58.89863 14.50489,0 0,-14.50489 0,-14.504881 -14.50489,0 -14.50488,0 0,14.504881 0,14.50489 14.50488,0 z m 234.27588,264.60428 -14.94442,0 0,-14.94443 0,-14.94443 14.94442,0 14.94443,0 0,-14.50488 0,-14.50489 14.50489,0 14.50488,0 0,-14.50488 0,-14.50489 14.50489,0 14.50489,0 0,14.50489 0,14.50488 14.94442,0 14.94443,0 0,-14.50488 0,-14.50489 14.50489,0 14.50488,0 0,14.50489 0,14.50488 14.50489,0 14.50488,0 0,-14.50488 0,-14.50489 14.94441,0 14.94443,0 0,14.50489 0,14.50488 14.50489,0 14.50488,0 0,14.50489 0,14.50488 14.50489,0 14.50488,0 0,-43.9542 0,-43.95419 -116.91815,0 -116.91817,0 0,14.94442 0,14.94443 -14.94443,0 -14.94442,0 0,14.50489 0,14.50488 -14.50489,0 -14.50488,0 0,-14.50488 0,-14.50489 14.50488,0 14.50489,0 0,-14.94443 0,-14.94442 14.94442,0 14.94443,0 0,-14.50489 0,-14.50489 14.50489,0 14.50488,0 0,-29.44931 0,-29.44931 14.50489,0 14.50489,0 0,-14.50489 0,-14.50488 -43.9542,0 -43.9542,0 0,-14.94443 0,-14.94443 58.89862,0 58.89863,0 0,-14.50489 0,-14.504881 14.50489,0 14.50488,0 0,-29.449314 0,-29.449314 14.50489,0 14.50488,0 0,29.449314 0,29.449314 -14.50488,0 -14.50489,0 0,14.504881 0,14.50489 29.44932,0 29.44929,0 0,29.44931 0,29.44932 29.00977,0 29.00977,0 0,29.44931 0,29.44931 14.94443,0 14.94443,0 0,58.45909 0,58.45908 -14.94443,0 -14.94443,0 0,14.94443 0,14.94443 -29.00977,0 -29.00977,0 0,-29.44931 0,-29.44932 -14.94443,0 -14.94441,0 0,14.50489 0,14.50488 -14.50488,0 -14.50489,0 0,-14.50488 0,-14.50489 -14.50488,0 -14.50489,0 0,14.50489 0,14.50488 -14.94443,0 -14.94442,0 0,-14.50488 0,-14.50489 -14.50489,0 -14.50489,0 0,14.50489 0,14.50488 -14.50488,0 -14.50489,0 0,14.94443 0,14.94443 -14.94443,0 z m 146.36749,-146.80703 73.40349,0 0,-14.50488 0,-14.50489 -73.40349,0 -73.40351,0 0,14.50489 0,14.50488 73.40351,0 z m -14.50489,-58.89862 29.00977,0 0,-14.50489 0,-14.50488 -29.00977,0 -29.00977,0 0,14.50488 0,14.50489 29.00977,0 z m -73.40351,-87.908401 -14.50489,0 0,-14.50489 0,-14.504882 -14.50488,0 -14.50489,0 0,-14.944428 0,-14.944428 14.50489,0 14.50488,0 0,14.944428 0,14.944428 14.50489,0 14.50489,0 0,14.504882 0,14.50489 -14.50489,0 z"
       id="path3187"
       inkscape:connector-curvature="0" />
  </g>
</svg>
