<?xml version="1.0" encoding="UTF-8" standalone="no"?>
<!-- Created with Inkscape (http://www.inkscape.org/) -->

<svg
   xmlns:dc="http://purl.org/dc/elements/1.1/"
   xmlns:cc="http://creativecommons.org/ns#"
   xmlns:rdf="http://www.w3.org/1999/02/22-rdf-syntax-ns#"
   xmlns:svg="http://www.w3.org/2000/svg"
   xmlns="http://www.w3.org/2000/svg"
   xmlns:sodipodi="http://sodipodi.sourceforge.net/DTD/sodipodi-0.dtd"
   xmlns:inkscape="http://www.inkscape.org/namespaces/inkscape"
   width="744.09448819"
   height="1052.3622047"
   id="svg2"
   version="1.1"
   inkscape:version="0.48.4 r9939"
   sodipodi:docname="New document 1">
  <defs
     id="defs4" />
  <sodipodi:namedview
     id="base"
     pagecolor="#ffffff"
     bordercolor="#666666"
     borderopacity="1.0"
     inkscape:pageopacity="0.0"
     inkscape:pageshadow="2"
     inkscape:zoom="0.98994949"
     inkscape:cx="423.57438"
     inkscape:cy="663.36601"
     inkscape:document-units="px"
     inkscape:current-layer="layer1"
     showgrid="false"
     inkscape:window-width="1680"
     inkscape:window-height="991"
     inkscape:window-x="0"
     inkscape:window-y="27"
     inkscape:window-maximized="1" />
  <metadata
     id="metadata7">
    <rdf:RDF>
      <cc:Work
         rdf:about="">
        <dc:format>image/svg+xml</dc:format>
        <dc:type
           rdf:resource="http://purl.org/dc/dcmitype/StillImage" />
        <dc:title></dc:title>
      </cc:Work>
    </rdf:RDF>
  </metadata>
  <g
     inkscape:label="Layer 1"
     inkscape:groupmode="layer"
     id="layer1">
    <g
       style="font-size:40px;font-style:normal;font-weight:normal;line-height:125%;letter-spacing:0px;word-spacing:0px;fill:#000000;fill-opacity:1;stroke:none;font-family:Sans"
       id="text2985">
      <path
         d="m 190.94867,278.09879 c -1.30209,3e-5 -1.95313,0.5469 -1.95313,1.64062 0,1.09378 0.65104,1.64065 1.95313,1.64063 l 8.86719,0 0,2.34375 -4.25782,0 c -2.8125,2e-5 -4.21875,1.14585 -4.21875,3.4375 l 0,2.65625 c 0,2.29168 1.40625,3.43751 4.21875,3.4375 l 4.25782,0 0,2.8125 -9.96094,0 c -1.30209,10e-6 -1.95313,0.54688 -1.95313,1.64062 0,1.09376 0.65104,1.64064 1.95313,1.64063 l 31.5625,0 c 1.30205,10e-6 1.95309,-0.54687 1.95312,-1.64063 -3e-5,-1.09374 -0.65107,-1.64061 -1.95312,-1.64062 l -9.53125,0 0,-2.8125 4.29687,0 c 2.81247,10e-6 4.21872,-1.14582 4.21875,-3.4375 l 0,-2.65625 c -3e-5,-2.29165 -1.40628,-3.43748 -4.21875,-3.4375 l -4.29687,0 0,-2.34375 8.4375,0 c 1.30205,2e-5 1.95309,-0.54685 1.95312,-1.64063 -3e-5,-1.09372 -0.65107,-1.64059 -1.95312,-1.64062 l -29.375,0 m 12.46094,15.15625 4.88281,0 0,2.8125 -4.88281,0 0,-2.8125 m 8.47656,-6.40625 3.98437,0 c 0.62497,2e-5 0.93747,0.20835 0.9375,0.625 l 0,2.03125 c -3e-5,0.41668 -0.31253,0.62501 -0.9375,0.625 l -3.98437,0 0,-3.28125 m -8.47656,0 4.88281,0 0,3.28125 -4.88281,0 0,-3.28125 m -3.59375,0 0,3.28125 -3.94532,0 c -0.62501,10e-6 -0.9375,-0.20832 -0.9375,-0.625 l 0,-2.03125 c 0,-0.41665 0.31249,-0.62498 0.9375,-0.625 l 3.94532,0 m 8.47656,-5.46875 0,2.34375 -4.88281,0 0,-2.34375 4.88281,0 m -15.9375,21.21093 c -0.44272,1.7448 -1.10678,3.35938 -1.99219,4.84375 -0.3125,0.52084 -0.46875,1.02865 -0.46875,1.52344 0,1.19792 0.58593,1.79687 1.75781,1.79688 0.59896,-1e-5 1.15885,-0.36459 1.67969,-1.09375 1.01562,-1.64063 1.77083,-3.45052 2.26563,-5.42969 0.10415,-0.52083 0.15624,-0.97656 0.15625,-1.36719 -10e-6,-1.19791 -0.58595,-1.79687 -1.75782,-1.79687 -0.75521,0 -1.30209,0.50782 -1.64062,1.52343 m 6.01562,-0.11718 0,5.625 c -1e-5,2.70833 1.51041,4.06249 4.53125,4.0625 l 5.625,0 c 2.94269,-1e-5 4.81769,-0.88542 5.625,-2.65625 0.52081,-1.17188 0.78123,-2.16146 0.78125,-2.96875 -2e-5,-1.25 -0.62502,-1.875 -1.875,-1.875 -0.75523,0 -1.27606,0.46875 -1.5625,1.40625 -0.26044,0.88541 -0.57294,1.5625 -0.9375,2.03125 -0.2344,0.3125 -1.01564,0.46875 -2.34375,0.46875 l -5,0 c -0.72918,0 -1.09376,-0.26042 -1.09375,-0.78125 l 0,-5.3125 c -1e-5,-1.45833 -0.62501,-2.1875 -1.875,-2.1875 -1.25001,0 -1.87501,0.72917 -1.875,2.1875 m 5.15625,-1.01563 c -1e-5,0.41667 0.22134,0.84636 0.66407,1.28906 0.80727,0.75522 1.49737,1.54949 2.07031,2.38282 0.52081,0.72917 1.04164,1.09375 1.5625,1.09375 1.19789,0 1.79685,-0.59896 1.79687,-1.79688 -2e-5,-0.46874 -0.15627,-0.95051 -0.46875,-1.44531 -0.75523,-1.09374 -1.56252,-1.99218 -2.42187,-2.69531 -0.52085,-0.41666 -0.9896,-0.62499 -1.40625,-0.625 -1.19794,10e-6 -1.79689,0.59896 -1.79688,1.79687 m 13.67188,-0.39062 c -1.25003,0 -1.87503,0.61198 -1.875,1.83593 -3e-5,0.52084 0.24737,1.09376 0.74219,1.71875 1.01559,1.40626 1.91403,2.85157 2.69531,4.33594 0.44267,0.98958 1.04163,1.48437 1.79687,1.48438 1.19789,-1e-5 1.79684,-0.61198 1.79688,-1.83594 -4e-5,-0.52083 -0.0912,-0.98958 -0.27344,-1.40625 -0.91149,-1.97916 -2.0443,-3.76302 -3.39844,-5.35156 -0.49482,-0.52083 -0.98961,-0.78125 -1.48437,-0.78125"
         style="font-variant:normal;font-stretch:normal;font-family:'EPSON 太丸ゴシック体Ｂ';-inkscape-font-specification:'EPSON 太丸ゴシック体Ｂ'"
         id="path2990" />
    </g>
  </g>
</svg>
