<?xml version="1.0" encoding="UTF-8" standalone="no"?>
<!-- Created with Inkscape (http://www.inkscape.org/) -->

<svg
   xmlns:osb="http://www.openswatchbook.org/uri/2009/osb"
   xmlns:dc="http://purl.org/dc/elements/1.1/"
   xmlns:cc="http://creativecommons.org/ns#"
   xmlns:rdf="http://www.w3.org/1999/02/22-rdf-syntax-ns#"
   xmlns:svg="http://www.w3.org/2000/svg"
   xmlns="http://www.w3.org/2000/svg"
   xmlns:xlink="http://www.w3.org/1999/xlink"
   xmlns:sodipodi="http://sodipodi.sourceforge.net/DTD/sodipodi-0.dtd"
   xmlns:inkscape="http://www.inkscape.org/namespaces/inkscape"
   width="744.09448819"
   height="1052.3622047"
   id="svg2"
   version="1.1"
   inkscape:version="0.48.4 r9939"
   sodipodi:docname="mech.svg">
  <defs
     id="defs4">
    <linearGradient
       inkscape:collect="always"
       id="linearGradient3900">
      <stop
         style="stop-color:#3c3939;stop-opacity:1"
         offset="0"
         id="stop3902" />
      <stop
         style="stop-color:#747474;stop-opacity:1"
         offset="1"
         id="stop3904" />
    </linearGradient>
    <linearGradient
       inkscape:collect="always"
       id="linearGradient3892">
      <stop
         style="stop-color:#e2e2e2;stop-opacity:1"
         offset="0"
         id="stop3894" />
      <stop
         style="stop-color:#909090;stop-opacity:1"
         offset="1"
         id="stop3896" />
    </linearGradient>
    <linearGradient
       osb:paint="gradient"
       id="linearGradient3886">
      <stop
         id="stop3888"
         offset="0"
         style="stop-color:#767676;stop-opacity:1" />
      <stop
         id="stop3890"
         offset="1"
         style="stop-color:#e7e7e7;stop-opacity:0" />
    </linearGradient>
    <linearGradient
       inkscape:collect="always"
       id="linearGradient3844">
      <stop
         style="stop-color:#7d7d7d;stop-opacity:1;"
         offset="0"
         id="stop3846" />
      <stop
         style="stop-color:#c0c0c0;stop-opacity:1"
         offset="1"
         id="stop3848" />
    </linearGradient>
    <linearGradient
       inkscape:collect="always"
       id="linearGradient3817">
      <stop
         style="stop-color:#e7e7e7;stop-opacity:1;"
         offset="0"
         id="stop3819" />
      <stop
         style="stop-color:#7d7d7d;stop-opacity:1"
         offset="1"
         id="stop3821" />
    </linearGradient>
    <linearGradient
       inkscape:collect="always"
       id="linearGradient3793"
       osb:paint="gradient">
      <stop
         style="stop-color:#767676;stop-opacity:1"
         offset="0"
         id="stop3795" />
      <stop
         style="stop-color:#e7e7e7;stop-opacity:1"
         offset="1"
         id="stop3797" />
    </linearGradient>
    <linearGradient
       inkscape:collect="always"
       id="linearGradient3779"
       osb:paint="gradient">
      <stop
         style="stop-color:#4286e7;stop-opacity:1;"
         offset="0"
         id="stop3781" />
      <stop
         style="stop-color:#4286e7;stop-opacity:0;"
         offset="1"
         id="stop3783" />
    </linearGradient>
    <linearGradient
       inkscape:collect="always"
       id="linearGradient3769">
      <stop
         style="stop-color:#4286e7;stop-opacity:1;"
         offset="0"
         id="stop3771" />
      <stop
         style="stop-color:#ddeaff;stop-opacity:1"
         offset="1"
         id="stop3773" />
    </linearGradient>
    <linearGradient
       inkscape:collect="always"
       xlink:href="#linearGradient3769"
       id="linearGradient3777"
       x1="400"
       y1="412.36218"
       x2="420"
       y2="382.36218"
       gradientUnits="userSpaceOnUse" />
    <linearGradient
       inkscape:collect="always"
       xlink:href="#linearGradient3793"
       id="linearGradient3807"
       x1="375"
       y1="487.36218"
       x2="315"
       y2="382.36218"
       gradientUnits="userSpaceOnUse" />
    <linearGradient
       inkscape:collect="always"
       xlink:href="#linearGradient3817"
       id="linearGradient3823"
       x1="200"
       y1="352.36218"
       x2="170"
       y2="412.36218"
       gradientUnits="userSpaceOnUse"
       gradientTransform="translate(-0.70710679,-30.405592)" />
    <linearGradient
       inkscape:collect="always"
       xlink:href="#linearGradient3844"
       id="linearGradient3850"
       x1="280"
       y1="457.36218"
       x2="355"
       y2="472.36218"
       gradientUnits="userSpaceOnUse" />
    <linearGradient
       inkscape:collect="always"
       xlink:href="#linearGradient3793-6"
       id="linearGradient3807-3"
       x1="375"
       y1="487.36218"
       x2="315"
       y2="382.36218"
       gradientUnits="userSpaceOnUse" />
    <linearGradient
       id="linearGradient3793-6"
       osb:paint="gradient">
      <stop
         style="stop-color:#767676;stop-opacity:1"
         offset="0"
         id="stop3795-5" />
      <stop
         style="stop-color:#e7e7e7;stop-opacity:1"
         offset="1"
         id="stop3797-0" />
    </linearGradient>
    <linearGradient
       gradientTransform="translate(0.50000006,0.49999298)"
       y2="386.86218"
       x2="284.5"
       y1="461.86218"
       x1="269.5"
       gradientUnits="userSpaceOnUse"
       id="linearGradient3867"
       xlink:href="#linearGradient3886"
       inkscape:collect="always" />
    <linearGradient
       inkscape:collect="always"
       xlink:href="#linearGradient3892"
       id="linearGradient3898"
       x1="465"
       y1="427.36218"
       x2="435"
       y2="457.36218"
       gradientUnits="userSpaceOnUse" />
    <linearGradient
       inkscape:collect="always"
       xlink:href="#linearGradient3900"
       id="linearGradient3906"
       x1="165"
       y1="462.36218"
       x2="160"
       y2="427.36218"
       gradientUnits="userSpaceOnUse" />
  </defs>
  <sodipodi:namedview
     id="base"
     pagecolor="#ffffff"
     bordercolor="#666666"
     borderopacity="1.0"
     inkscape:pageopacity="0.0"
     inkscape:pageshadow="2"
     inkscape:zoom="1.4142136"
     inkscape:cx="182.91885"
     inkscape:cy="616.26919"
     inkscape:document-units="px"
     inkscape:current-layer="g3951"
     showgrid="true"
     inkscape:snap-global="true"
     showguides="true"
     inkscape:guide-bbox="true"
     inkscape:window-width="1680"
     inkscape:window-height="991"
     inkscape:window-x="0"
     inkscape:window-y="27"
     inkscape:window-maximized="1">
    <inkscape:grid
       type="xygrid"
       id="grid2985" />
    <sodipodi:guide
       orientation="1,0"
       position="430,560"
       id="guide2997" />
  </sodipodi:namedview>
  <metadata
     id="metadata7">
    <rdf:RDF>
      <cc:Work
         rdf:about="">
        <dc:format>image/svg+xml</dc:format>
        <dc:type
           rdf:resource="http://purl.org/dc/dcmitype/StillImage" />
        <dc:title></dc:title>
      </cc:Work>
    </rdf:RDF>
  </metadata>
  <g
     inkscape:groupmode="layer"
     id="layer2"
     inkscape:label="flame"
     style="display:none">
    <path
       style="fill:#ff0000;fill-opacity:1;stroke:none"
       d="m 140,462.36218 c 0,0 -50,20 -70,20 -20,0 -80,-40 -100,-40 -20,0 50,-50 100,-50 50,0 30,10 70,20 40,10 0,50 0,50 z"
       id="path3909"
       inkscape:connector-curvature="0" />
    <path
       style="fill:#ffff00;stroke:none"
       d="m 145,452.36218 c 0,0 -65,20 -75,20 -10,0 -40,-40 -60,-40 -20,0 50,-25 60,-25 15,10e-6 75,15 75,15 z"
       id="path3911"
       inkscape:connector-curvature="0"
       sodipodi:nodetypes="cssscc" />
    <path
       style="fill:#ff0000;fill-opacity:1;stroke:none"
       d="m 140,427.36218 c 0,0 -60,-10 -70,-10 -10,0 -30,10 -40,10 -10,0 35,30 45,30 10,0 55,-10 70,-10 15,0 -5,-20 -5,-20 z"
       id="path3915"
       inkscape:connector-curvature="0" />
  </g>
  <g
     style="display:none"
     inkscape:label="flame 3"
     id="g3951"
     inkscape:groupmode="layer">
    <path
       inkscape:connector-curvature="0"
       id="path3953"
       d="m 140,462.36218 c 0,0 -60,30 -80,30 -20,0 -110,0 -90,-20 14.142136,-14.14213 50,-60 100,-60 50,0 30,-10 70,0 40,10 0,50 0,50 z"
       style="fill:#ff0000;fill-opacity:1;stroke:none"
       sodipodi:nodetypes="cssssc" />
    <path
       sodipodi:nodetypes="cssscc"
       inkscape:connector-curvature="0"
       id="path3955"
       d="m 145,452.36218 c 0,0 -85,30 -95,30 -10,0 -60,10 -60,-10 0,-20 70,-50 80,-50 15,10e-6 75,0 75,0 z"
       style="fill:#ffff00;stroke:none" />
    <path
       inkscape:connector-curvature="0"
       id="path3957"
       d="m 140,427.36218 c 0,0 -70,5 -80,5 -10,0 -57.0710669,32.92893 -50,40 10,10 40,0 50,0 10,0 70,-25 85,-25 15,0 -5,-20 -5,-20 z"
       style="fill:#ff0000;fill-opacity:1;stroke:none"
       sodipodi:nodetypes="cssssc" />
  </g>
  <g
     inkscape:label="flame 2"
     id="g3943"
     inkscape:groupmode="layer"
     style="display:none">
    <path
       inkscape:connector-curvature="0"
       id="path3945"
       d="m 140,462.36218 c 0,0 -50,0 -70,0 -20,0 -90,-50 -110,-50 -20,0 60,-30 110,-30 50,0 30,20 70,30 40,10 0,50 0,50 z"
       style="fill:#ff0000;fill-opacity:1;stroke:none"
       sodipodi:nodetypes="cssssc" />
    <path
       sodipodi:nodetypes="cssscc"
       inkscape:connector-curvature="0"
       id="path3947"
       d="m 145,452.36218 c 0,0 -65,0 -75,0 -10,0 -50,-30 -70,-40 -17.888544,-8.94427 50,-20 60,-20 15,10e-6 85,30 85,30 z"
       style="fill:#ffff00;stroke:none" />
    <path
       inkscape:connector-curvature="0"
       id="path3949"
       d="m 140,427.36218 c 0,0 -70,-25 -80,-25 -10,0 -30,10 -40,10 -10,0 50,30 60,30 10,0 50,5 65,5 15,0 -5,-20 -5,-20 z"
       style="fill:#ff0000;fill-opacity:1;stroke:none"
       sodipodi:nodetypes="cssssc" />
  </g>
  <g
     inkscape:label="Layer 1"
     inkscape:groupmode="layer"
     id="layer1">
    <path
       style="fill:url(#linearGradient3807);fill-opacity:1;stroke:#000000;stroke-width:1px;stroke-linecap:butt;stroke-linejoin:miter;stroke-opacity:1"
       d="m 180,472.36218 c 0,0 106.15833,21.60182 150,20 43.84167,-1.60182 76.87603,-9.66103 100,-20 23.12397,-10.33897 40,-13.33333 40,-30 0,-16.66667 -25.09569,-26.99021 -40,-30 -14.90431,-3.00979 -25.76014,11.56314 -40,10 -32.40902,-14.35486 -31.06614,-49.06195 -45,-50 -30.70611,-1.91169 -175,20 -175,20 z"
       id="path2987"
       inkscape:connector-curvature="0"
       sodipodi:nodetypes="czzzzcccc" />
    <path
       style="fill:url(#linearGradient3867);fill-opacity:1;stroke:#000000;stroke-width:1px;stroke-linecap:butt;stroke-linejoin:miter;stroke-opacity:1"
       d="m 180.5,472.86217 c 0,0 106.15833,21.60182 150,20 43.84167,-1.60182 76.87603,-9.66103 100,-20 23.12397,-10.33896 40,-13.33332 40,-29.99999 0,-16.66667 -25.09569,-26.99021 -40,-30 -14.90431,-3.00979 -25.76014,11.56314 -40,10 -32.40902,-14.35486 -31.06614,-49.06195 -45,-50 -30.70611,-1.91169 -175.5,19.5 -175.5,19.5 z"
       id="path2987-1"
       inkscape:connector-curvature="0"
       sodipodi:nodetypes="czzzzcccc" />
    <path
       style="fill:url(#linearGradient3777);stroke:#000000;stroke-width:1px;stroke-linecap:butt;stroke-linejoin:miter;stroke-opacity:1;fill-opacity:1"
       d="m 340,382.36218 c 3.74087,-17.14024 22.85976,-13.74087 40,-10 17.14024,3.74087 50,40 50,40 0,0 -22.85976,13.74087 -40,10 -17.14024,-3.74087 -53.74087,-22.85976 -50,-40 z"
       id="path2989"
       inkscape:connector-curvature="0"
       sodipodi:nodetypes="zzczz" />
    <path
       style="fill:url(#linearGradient3850);fill-opacity:1;stroke:#000000;stroke-width:1px;stroke-linecap:butt;stroke-linejoin:miter;stroke-opacity:1"
       d="m 360,432.36218 c 15.79224,1.46773 15,0 20,10 5,10 -40,70 -60,70 -20,0 -55,0 -60,0 -5,0 -5,-5 0,-15 5,-10 7.66169,-36.70026 25,-50 17.33831,-13.29974 59.20776,-16.46773 75,-15 z"
       id="path2991"
       inkscape:connector-curvature="0"
       sodipodi:nodetypes="zzzzzzz" />
    <path
       style="fill:url(#linearGradient3823);fill-opacity:1;stroke:#000000;stroke-width:1px;stroke-linecap:butt;stroke-linejoin:miter;stroke-opacity:1"
       d="m 240,382.36218 c 4.85071,-1.21268 -30.70711,-55.40559 -40.70711,-60.40559 -11.92569,-5.96285 -35,-5 -40,0 -5,5 10,70 10,70 10,0 50.70711,-4.59441 70.70711,-9.59441 z"
       id="path2993"
       inkscape:connector-curvature="0"
       sodipodi:nodetypes="sssss" />
    <path
       style="fill:url(#linearGradient3906);fill-opacity:1;stroke:#000000;stroke-width:1px;stroke-linecap:butt;stroke-linejoin:miter;stroke-opacity:1"
       d="m 180,472.36218 -36,-10 -4,-50 30,-20 z"
       id="path2995"
       inkscape:connector-curvature="0"
       sodipodi:nodetypes="ccccc" />
    <path
       style="fill:url(#linearGradient3898);stroke:#000000;stroke-width:1px;stroke-linecap:butt;stroke-linejoin:miter;stroke-opacity:1;fill-opacity:1"
       d="m 430,412.36218 c -15,0 5,55 10,55 5,0 30.38019,-10.163 30,-25 -0.38019,-14.837 -25,-30 -40,-30 z"
       id="path2999"
       inkscape:connector-curvature="0"
       sodipodi:nodetypes="zzzz" />
  </g>
</svg>
